<?xml version="1.0" standalone="no"?>
<!DOCTYPE svg PUBLIC "-//W3C//DTD SVG 20010904//EN"
 "http://www.w3.org/TR/2001/REC-SVG-20010904/DTD/svg10.dtd">
<svg version="1.0" xmlns="http://www.w3.org/2000/svg"
 width="1280.000000pt" height="710.000000pt" viewBox="0 0 1280.000000 710.000000"
 preserveAspectRatio="xMidYMid meet">
<metadata>
Created by potrace 1.16, written by Peter Selinger 2001-2019
</metadata>
<g transform="translate(0.000000,710.000000) scale(0.100000,-0.100000)"
fill="#000000" stroke="none">
<path d="M0 3550 l0 -3550 6400 0 6400 0 0 3550 0 3550 -6400 0 -6400 0 0
-3550z m9361 2263 c11 -15 11 -16 -1 -5 -19 16 -41 15 -34 -2 4 -11 0 -13 -15
-9 -15 4 -21 1 -21 -11 0 -9 -5 -15 -11 -13 -13 2 -46 -79 -36 -89 3 -4 22 3
42 15 38 22 75 28 75 11 0 -5 -4 -10 -10 -10 -5 0 -10 -7 -10 -15 0 -8 -9 -19
-20 -25 -20 -11 -27 -35 -12 -43 20 -11 63 -17 57 -8 -4 7 1 8 11 4 12 -4 15
-3 10 5 -4 7 -3 12 3 12 22 0 22 -24 0 -41 -56 -44 -104 -55 -64 -15 20 19 19
30 -1 22 -9 -4 -23 -1 -30 5 -9 7 -14 8 -14 1 0 -6 6 -12 13 -15 9 -3 9 -7 -2
-20 -11 -13 -11 -20 -1 -32 6 -8 9 -19 5 -25 -3 -5 2 -10 12 -11 10 0 13 -3 6
-5 -6 -3 -23 2 -37 12 -16 10 -26 12 -26 5 0 -6 7 -11 15 -11 8 0 15 -7 15
-15 0 -8 -9 -15 -20 -15 -11 0 -20 -4 -20 -10 0 -5 -9 -10 -20 -10 -11 0 -20
-5 -20 -12 0 -6 -3 -9 -6 -6 -3 4 -1 23 5 43 8 30 6 43 -12 78 -54 102 -183
117 -246 28 -59 -82 -19 -206 73 -227 16 -3 25 -9 20 -13 -5 -3 -22 -25 -38
-49 -24 -36 -31 -40 -44 -30 -13 10 -14 10 -8 1 4 -7 2 -13 -3 -13 -6 0 -11 4
-11 8 0 10 -35 9 -68 -2 -19 -6 -22 -13 -18 -32 4 -14 2 -24 -4 -24 -5 0 -10
5 -10 10 0 14 -33 13 -48 -2 -6 -6 -15 -8 -19 -4 -5 4 3 17 17 28 14 11 24 25
22 31 -2 5 4 7 11 4 10 -4 13 0 10 13 -3 10 0 21 6 24 23 15 9 27 -26 24 -35
-2 -38 -1 -35 22 2 13 11 29 20 36 17 12 9 34 -14 34 -11 0 -13 7 -8 28 4 15
12 31 18 35 8 6 7 10 -1 14 -21 8 -16 61 7 73 16 8 18 15 11 29 -15 28 -2 63
20 56 27 -9 41 3 30 24 -13 23 20 44 54 35 20 -5 25 -2 25 11 0 10 8 24 18 31
14 10 20 10 35 -4 17 -15 18 -14 23 5 8 29 51 37 60 11 7 -24 28 -18 32 9 2
14 13 23 33 27 93 19 92 19 106 0 11 -15 13 -16 13 -2 0 16 12 20 81 26 9 1
23 -6 30 -15z m174 -78 c0 -76 4 -99 26 -145 24 -52 68 -110 83 -110 3 0 25
-8 49 -19 105 -46 138 -54 209 -47 72 6 150 36 171 65 27 37 37 34 37 -12 0
-41 -3 -46 -30 -56 -16 -5 -30 -15 -30 -22 0 -9 -3 -9 -14 0 -11 9 -15 8 -20
-4 -3 -9 -10 -14 -15 -10 -6 3 -14 -2 -19 -11 -6 -11 -16 -15 -27 -10 -10 3
-23 2 -31 -4 -18 -16 -124 -16 -156 0 -24 12 -30 11 -48 -5 -20 -18 -20 -17
-20 8 0 36 -37 46 -77 21 -28 -18 -28 -18 -10 2 23 28 22 39 -9 59 -24 15 -27
15 -52 -1 l-27 -17 23 25 c12 13 22 29 22 36 0 13 -35 34 -43 26 -10 -11 -28
7 -19 19 4 7 7 18 6 25 -1 6 -2 17 -3 22 0 6 -13 10 -28 10 -21 0 -24 3 -15
12 7 7 12 25 12 40 0 22 -5 28 -21 28 -19 0 -19 1 -5 22 24 34 19 56 -14 73
-37 19 -37 21 -3 20 20 0 29 6 31 20 5 25 21 36 47 33 18 -3 20 -11 20 -93z
m-6776 61 c12 -13 19 -26 14 -29 -4 -2 -46 -17 -92 -31 -154 -50 -380 -153
-519 -237 -85 -53 -192 -130 -192 -141 0 -4 40 12 88 36 293 147 641 244 992
276 340 30 791 -19 1110 -121 152 -49 376 -139 446 -181 53 -31 40 -3 -18 40
-180 132 -408 246 -670 333 -68 23 -125 43 -127 45 -2 2 4 11 13 20 14 14 29
15 94 9 237 -21 542 -134 765 -283 99 -66 105 -73 186 -257 227 -509 365
-1080 388 -1607 l6 -147 -29 -38 c-199 -263 -579 -453 -926 -464 -85 -3 -71
-12 -148 87 -14 17 -51 64 -83 103 -33 40 -57 74 -55 75 1 1 32 13 68 26 170
61 315 153 433 274 80 82 80 95 1 50 -210 -118 -394 -192 -632 -254 -352 -93
-752 -104 -1097 -30 -254 54 -522 156 -738 282 -38 22 -71 37 -74 35 -5 -6 60
-81 117 -135 87 -82 262 -181 400 -228 30 -10 59 -21 63 -25 7 -5 -25 -49
-141 -188 -20 -24 -42 -51 -48 -59 -24 -33 -246 -7 -424 50 -250 80 -454 220
-593 408 -30 42 -29 14 -11 295 32 503 210 1160 435 1607 45 89 64 105 232
201 228 131 496 216 708 225 26 2 42 -4 58 -22z m7191 -573 l28 -27 -28 -36
c-16 -19 -47 -71 -69 -115 -39 -76 -42 -85 -42 -168 0 -48 4 -93 9 -100 9 -12
35 -118 30 -122 -7 -6 -68 -35 -73 -35 -15 0 -2 17 25 32 51 29 30 69 -26 48
-45 -18 -50 -10 -9 13 22 12 41 31 43 41 3 16 -2 18 -42 15 -54 -5 -62 6 -12
15 65 12 51 55 -18 57 l-41 1 42 11 c23 7 45 16 50 20 12 13 -27 37 -60 37
-17 0 -26 4 -22 11 4 6 19 10 33 9 45 -3 52 -1 52 20 0 11 -6 20 -12 20 -7 1
-26 7 -43 15 l-30 15 50 -3 c64 -3 73 21 18 47 -44 22 -28 35 18 15 25 -10 32
-10 39 1 11 18 3 35 -26 50 -13 7 -24 17 -24 22 0 12 14 10 36 -7 47 -36 71 1
28 46 -31 33 -22 39 16 9 14 -11 30 -20 36 -20 19 0 26 32 11 49 -39 45 -29
56 13 14z m-1447 -153 c10 -16 23 -30 29 -30 6 0 8 13 6 30 -3 17 -2 30 1 30
15 0 71 -41 71 -51 0 -14 -26 -36 -58 -49 -17 -8 -22 -15 -17 -30 3 -11 2 -20
-3 -20 -12 0 -52 -122 -52 -161 0 -39 31 -111 37 -86 7 27 18 20 32 -18 16
-44 84 -115 136 -140 24 -11 69 -21 111 -23 58 -3 78 0 114 18 108 55 160 183
131 320 -13 58 -7 75 15 46 25 -35 17 10 -10 53 -29 45 -76 87 -121 105 -18 8
-36 19 -39 25 -10 15 106 15 122 -1 9 -9 18 -9 38 1 31 14 42 8 24 -14 -7 -8
-10 -22 -6 -30 5 -14 10 -13 36 6 36 28 52 18 22 -14 -39 -42 -20 -64 27 -31
15 11 26 13 33 6 7 -7 1 -15 -21 -26 -47 -25 -41 -48 9 -40 48 8 51 0 10 -21
-16 -9 -30 -23 -30 -31 0 -13 8 -14 40 -9 48 8 54 -8 8 -21 -18 -6 -33 -16
-33 -24 0 -14 5 -16 48 -19 30 -2 18 -20 -15 -23 -40 -4 -45 -31 -8 -36 42 -6
47 -22 7 -22 -30 0 -37 -4 -37 -19 0 -13 9 -21 30 -26 44 -10 36 -24 -10 -18
-32 5 -40 3 -40 -10 0 -9 14 -23 30 -32 17 -9 30 -18 30 -21 0 -5 -6 -4 -57
11 -18 5 -23 2 -23 -11 0 -9 10 -27 23 -39 12 -12 30 -32 40 -44 13 -16 24
-20 40 -15 12 4 24 11 25 15 2 5 10 9 17 9 7 0 15 6 18 13 2 6 8 0 12 -15 9
-34 49 -39 65 -8 14 26 44 15 36 -14 -3 -11 2 -28 11 -38 15 -17 13 -18 -45
-17 -45 1 -62 5 -62 15 0 19 -90 19 -116 -1 -27 -20 -143 -21 -150 0 -9 22
-34 18 -34 -5 0 -17 -5 -19 -25 -14 -20 5 -27 2 -33 -17 -6 -15 -11 -18 -16
-11 -12 19 -36 14 -36 -7 0 -29 -17 -35 -30 -11 -15 28 -30 25 -30 -7 0 -16
-4 -34 -9 -42 -7 -11 -11 -5 -16 23 -9 48 -38 47 -43 -2 -5 -46 -22 -40 -22 9
0 49 -18 49 -39 1 -20 -44 -33 -40 -25 8 5 32 3 40 -9 40 -8 0 -20 -13 -27
-30 -22 -53 -41 -31 -20 24 13 36 -11 35 -39 -1 -28 -35 -39 -22 -18 22 21 45
5 56 -32 21 -34 -32 -47 -23 -21 14 20 28 26 50 14 50 -4 0 -22 -9 -40 -21
-39 -24 -49 -6 -14 24 28 24 26 41 -5 33 -28 -7 -30 -4 -13 24 10 16 10 24 0
41 -10 15 -11 24 -3 32 17 17 13 24 -20 37 -22 10 -33 10 -41 2 -8 -8 -5 -14
13 -21 l24 -10 -23 -7 c-23 -7 -26 -28 -4 -30 7 -1 17 -2 22 -3 6 0 10 -5 10
-11 0 -6 -3 -9 -7 -9 -23 4 -53 -2 -53 -10 0 -5 10 -12 23 -16 21 -8 21 -8 -5
-12 -32 -5 -37 -29 -8 -38 11 -3 20 -11 20 -16 0 -11 -3 -11 -36 1 -25 10 -26
9 -22 -15 4 -19 1 -25 -13 -25 -20 0 -25 -15 -9 -25 6 -3 10 -13 10 -22 0 -14
-3 -14 -25 1 -31 21 -35 20 -35 -3 0 -17 -4 -18 -30 -11 -35 10 -36 8 -14 -26
19 -28 9 -48 -10 -21 -21 28 -39 21 -31 -13 7 -34 -10 -42 -20 -10 -7 22 -20
26 -30 10 -3 -6 -17 -7 -31 -4 -22 6 -24 3 -24 -31 0 -21 -4 -34 -10 -30 -5 3
-10 17 -10 31 0 13 -6 24 -12 24 -9 0 -14 20 -15 61 l-2 60 30 -5 c16 -2 29 0
29 5 0 5 -4 10 -10 10 -40 5 -51 17 -44 47 9 37 20 47 37 34 17 -15 49 16 71
70 17 40 15 43 -42 72 -41 21 -38 35 31 171 38 75 35 72 52 49 14 -18 14 -17
15 13 0 17 7 39 16 47 43 43 182 103 244 105 18 1 31 -8 43 -29z m2079 10
c127 -47 200 -174 254 -443 56 -275 30 -493 -88 -735 -48 -98 -101 -150 -180
-175 -49 -15 -112 -17 -592 -17 l-537 0 3 -47 3 -48 325 -1 c179 0 331 -1 338
-2 9 -2 12 -42 12 -162 0 -147 -2 -164 -24 -214 -49 -111 -177 -192 -381 -242
-95 -23 -132 -27 -275 -28 -149 -1 -175 2 -275 27 -194 49 -322 129 -375 233
l-25 49 -3 399 c-3 394 -2 399 20 459 31 82 100 156 180 193 l63 29 425 5
c285 4 436 10 458 17 156 55 279 202 302 360 5 38 10 134 10 216 l0 147 155 0
c129 0 163 -3 207 -20z m-4152 -305 c14 1 28 -4 32 -10 4 -5 13 -10 20 -10 8
0 12 -11 10 -28 -1 -15 2 -27 8 -27 13 0 3 -204 -10 -208 -26 -9 0 -45 40 -55
l25 -6 -24 18 c-24 18 -23 19 78 19 56 1 110 4 120 7 11 3 26 -4 41 -20 12
-13 26 -22 30 -20 4 2 13 -7 20 -21 12 -21 11 -28 -6 -51 -13 -18 -32 -28 -54
-31 -19 -2 -41 -7 -50 -11 -8 -4 -46 -6 -85 -4 -38 1 -80 3 -93 3 -37 0 -70
-42 -40 -52 9 -3 12 -34 9 -114 -1 -60 -5 -111 -7 -114 -9 -9 -89 2 -101 13
-8 8 -13 53 -14 128 l-2 117 -41 8 c-23 4 -72 8 -111 9 -85 1 -165 14 -165 26
0 5 4 9 8 9 4 0 8 26 7 58 0 32 5 59 10 59 6 1 26 4 45 8 19 4 30 3 23 -2 -6
-4 34 -8 92 -8 57 0 103 2 103 5 0 3 0 12 1 20 1 12 4 12 12 -2 5 -10 17 -18
24 -18 18 0 20 16 3 24 -10 5 -10 7 0 12 8 4 12 26 11 62 -2 56 -2 56 -9 17
-6 -31 -8 -19 -7 48 0 49 -4 92 -9 97 -5 5 -8 -32 -6 -88 2 -53 8 -99 13 -100
5 -2 7 -8 3 -13 -3 -5 -12 -3 -20 6 -19 19 -18 191 1 218 13 18 13 18 25 0 10
-15 10 -14 5 12 -3 17 -2 26 2 20 4 -5 19 -10 33 -10z m2051 -405 c154 -79 59
-324 -105 -270 -54 17 -94 56 -106 102 -14 50 -5 90 28 130 49 58 115 72 183
38z m-4381 -2320 c12 -12 20 -33 20 -55 0 -50 -28 -75 -85 -75 -57 0 -85 25
-85 75 0 50 28 75 85 75 32 0 51 -6 65 -20z m3050 -335 l0 -355 -55 0 c-52 0
-55 1 -55 25 l0 25 -42 -27 c-36 -24 -52 -28 -114 -28 -57 0 -78 4 -101 21
-46 33 -75 103 -80 197 -8 115 14 188 71 242 49 48 99 65 190 65 l66 0 0 95 0
95 60 0 60 0 0 -355z m860 236 l0 -118 48 24 c59 31 155 29 199 -3 71 -51 104
-216 69 -338 -23 -79 -82 -138 -156 -156 -59 -14 -182 -9 -242 11 l-38 12 0
344 0 343 60 0 60 0 0 -119z m1250 -1 l0 -80 105 0 105 0 0 -45 0 -45 -105 0
-105 0 0 -141 0 -141 30 -30 c33 -32 32 -32 143 -12 l38 7 -3 -49 c-3 -47 -4
-48 -43 -57 -55 -12 -174 -4 -210 13 -16 8 -40 30 -52 49 -22 32 -23 44 -23
197 l0 164 -70 0 -70 0 0 45 0 45 70 0 70 0 0 69 0 69 38 10 c82 22 82 22 82
-68z m-5692 46 c55 -24 116 -93 133 -153 8 -28 14 -94 14 -159 0 -103 -2 -114
-30 -169 -33 -65 -91 -117 -153 -136 -20 -7 -99 -14 -174 -16 l-138 -5 0 332
0 332 153 -4 c116 -3 162 -9 195 -22z m1201 -122 c30 -6 31 -8 31 -57 l0 -50
-37 7 c-125 23 -181 16 -207 -26 -17 -27 17 -54 105 -83 138 -46 173 -82 166
-173 -5 -66 -39 -106 -111 -127 -51 -15 -191 -20 -258 -9 l-38 7 0 50 0 50 38
-7 c143 -24 220 -16 246 27 16 26 -26 60 -111 87 -132 43 -169 83 -160 173 5
58 41 100 103 122 40 15 178 20 233 9z m594 -5 c36 -10 37 -11 37 -59 0 -57
-1 -57 -75 -34 -67 22 -114 13 -159 -29 -82 -78 -69 -239 24 -287 47 -24 83
-25 140 -5 66 23 70 21 70 -34 0 -59 -4 -61 -120 -68 -136 -8 -213 23 -260
107 -22 40 -25 57 -25 145 0 91 3 105 28 151 48 87 115 122 232 123 39 1 87
-4 108 -10z m519 1 c87 -25 137 -101 145 -220 13 -189 -79 -300 -248 -300 -79
0 -129 17 -170 59 -65 64 -87 196 -53 312 19 62 79 128 135 146 44 14 144 16
191 3z m648 -8 c46 -23 71 -69 77 -142 l6 -60 -62 0 c-59 0 -61 1 -61 25 0 40
-26 92 -49 100 -28 8 -81 -24 -121 -75 l-30 -38 0 -156 0 -156 -60 0 -60 0 0
255 0 255 55 0 55 0 0 -32 0 -31 23 21 c54 51 161 68 227 34z m2252 8 c87 -25
137 -101 145 -220 13 -189 -79 -300 -248 -300 -79 0 -129 17 -170 59 -65 64
-87 196 -53 312 19 62 79 128 135 146 44 14 144 16 191 3z m-4672 -210 l0
-210 70 0 70 0 0 -45 0 -45 -210 0 -210 0 0 45 0 45 80 0 80 0 0 165 0 165
-70 0 -70 0 0 45 0 45 130 0 130 0 0 -210z m4900 -685 c0 -52 1 -55 19 -45 37
19 88 12 110 -16 18 -23 21 -41 21 -135 l0 -109 -30 0 -30 0 0 99 c0 109 -10
132 -49 111 -33 -17 -41 -43 -41 -129 l0 -81 -30 0 -30 0 0 180 0 180 30 0
c30 0 30 -1 30 -55z m1450 0 c0 -52 1 -55 19 -45 37 19 88 12 110 -16 18 -23
21 -41 21 -135 l0 -109 -30 0 -30 0 0 99 c0 109 -10 132 -49 111 -33 -17 -41
-43 -41 -129 l0 -81 -30 0 -30 0 0 180 0 180 30 0 c30 0 30 -1 30 -55z m-1690
-5 l0 -40 55 0 c52 0 55 -1 55 -25 0 -24 -3 -25 -55 -25 l-55 0 0 -75 c0 -85
13 -101 75 -89 32 6 35 4 35 -19 0 -29 -16 -37 -76 -37 -34 0 -51 6 -69 25
-23 22 -25 32 -25 110 l0 85 -35 0 c-31 0 -35 3 -35 25 0 22 4 25 35 25 33 0
35 2 35 34 0 34 9 44 43 45 13 1 17 -7 17 -39z m1450 0 l0 -40 55 0 c52 0 55
-1 55 -25 0 -24 -3 -25 -55 -25 l-55 0 0 -75 c0 -85 13 -101 75 -89 32 6 35 4
35 -19 0 -29 -16 -37 -76 -37 -34 0 -51 6 -69 25 -23 22 -25 32 -25 110 l0 85
-35 0 c-31 0 -35 3 -35 25 0 22 4 25 35 25 33 0 35 2 35 34 0 34 9 44 43 45
13 1 17 -7 17 -39z m-510 12 c42 -21 58 -65 44 -119 -12 -47 -50 -75 -113 -81
l-51 -5 0 -53 c0 -53 0 -54 -30 -54 l-30 0 0 165 0 165 73 0 c49 0 83 -6 107
-18z m1150 -55 c79 -39 78 -211 -1 -252 -34 -18 -95 -19 -129 -2 -78 39 -79
210 -1 252 32 18 98 19 131 2z m309 -13 c18 -23 21 -41 21 -135 l0 -109 -30 0
-30 0 0 99 c0 109 -10 132 -49 111 -33 -17 -41 -43 -41 -129 l0 -81 -30 0 -30
0 0 130 0 131 40 -3 c22 -1 43 1 46 5 4 4 24 7 45 7 29 0 42 -6 58 -26z
m-3055 -41 c12 -96 17 -104 33 -50 13 43 17 48 40 45 21 -2 29 -12 42 -48 l15
-45 7 30 c4 17 7 51 8 78 1 45 2 47 31 47 28 0 30 -2 29 -37 0 -21 -6 -78 -12
-128 l-12 -90 -37 -3 c-35 -3 -36 -2 -54 50 l-18 53 -15 -52 c-15 -51 -17 -53
-52 -53 l-36 0 -16 113 c-23 149 -23 147 12 147 28 0 29 -2 35 -57z m396 -48
l0 -105 40 0 c36 0 40 -2 40 -25 l0 -25 -110 0 -110 0 0 25 c0 23 4 25 40 25
l40 0 0 80 0 80 -35 0 c-31 0 -35 3 -35 25 0 24 2 25 65 25 l65 0 0 -105z
m1385 15 l29 -90 31 87 c30 83 34 88 64 91 20 2 31 -1 31 -9 0 -19 -99 -270
-121 -305 -22 -36 -57 -54 -104 -54 -31 0 -35 3 -35 25 0 18 5 25 19 25 32 0
51 11 65 39 13 24 10 36 -30 141 -24 63 -44 121 -44 127 0 8 13 13 33 13 33 0
33 -1 62 -90z"/>
<path d="M3276 5585 c-3 -9 -6 -57 -6 -106 0 -96 3 -101 50 -74 38 22 51 18
98 -25 l43 -40 293 0 293 0 11 -25 c8 -17 12 -102 12 -253 l0 -227 46 -19 46
-19 58 28 59 28 32 -27 c37 -31 69 -70 69 -83 0 -5 -12 -33 -26 -62 l-25 -54
24 -55 c24 -57 36 -66 130 -96 14 -4 17 -18 17 -83 l0 -78 -61 -20 c-60 -20
-62 -21 -86 -79 l-25 -60 28 -58 28 -58 -35 -37 c-19 -20 -39 -43 -46 -50 -16
-18 -24 -17 -90 13 -53 25 -59 25 -87 12 -17 -9 -43 -20 -57 -26 -21 -8 -32
-25 -46 -69 l-20 -58 -77 0 -78 0 -21 63 c-12 34 -27 62 -34 62 -7 0 -32 10
-57 22 l-44 21 -51 -26 c-28 -15 -57 -27 -64 -27 -7 0 -35 23 -62 50 l-50 51
28 52 c30 57 32 69 17 95 -5 9 -16 33 -24 53 -12 32 -22 39 -73 56 l-58 20 -3
70 c-3 80 -1 82 76 107 28 10 52 22 52 27 0 6 9 29 20 51 26 53 25 57 -7 123
l-27 55 52 52 52 52 55 -27 c31 -15 60 -27 65 -27 6 0 10 31 10 70 0 65 -2 70
-24 76 -13 3 -37 4 -52 2 -23 -2 -30 -9 -32 -30 -3 -24 -11 -30 -64 -46 -59
-19 -61 -20 -85 -77 l-25 -58 28 -64 27 -65 -50 -50 -50 -50 -46 21 c-25 12
-48 21 -51 21 -10 0 -6 -994 3 -1008 16 -26 374 15 561 65 102 26 299 90 365
117 130 54 323 151 425 214 36 22 69 37 74 34 5 -2 6 -37 4 -76 -11 -162 -146
-344 -363 -490 -44 -29 -89 -56 -100 -60 -11 -3 -31 -15 -45 -26 l-25 -20 50
-45 c50 -46 50 -46 105 -40 300 34 620 208 763 414 l30 44 -22 166 c-90 689
-224 1137 -408 1363 -44 54 -69 74 -135 108 -290 148 -693 257 -1013 275 -60
3 -144 8 -186 11 -65 5 -77 3 -83 -11z m1373 -502 c38 -43 61 -105 61 -167 0
-21 -35 -82 -63 -111 -23 -22 -61 -24 -97 -5 -19 11 -43 22 -52 26 -10 3 -18
13 -18 20 0 8 -3 14 -8 14 -12 0 -32 77 -32 127 0 74 17 108 68 136 57 31 86
23 141 -40z"/>
<path d="M3436 5181 c-3 -5 2 -29 13 -53 16 -38 25 -45 72 -62 30 -10 58 -23
64 -27 5 -5 43 -9 85 -9 124 0 120 3 120 -101 0 -49 4 -89 9 -89 5 0 19 29 31
64 18 56 25 65 48 68 l27 3 3 99 c3 71 0 101 -9 106 -18 12 -456 13 -463 1z"/>
<path d="M2544 4546 c-104 -48 -169 -129 -199 -246 -46 -175 36 -360 194 -437
48 -24 68 -28 141 -28 73 0 92 4 138 28 77 40 124 88 162 163 29 56 35 79 38
152 7 141 -42 253 -142 329 -88 67 -235 84 -332 39z"/>
<path d="M8342 5027 c-10 -12 -11 -29 -4 -69 10 -55 5 -68 -27 -68 -11 0 -12
3 -4 11 12 12 7 39 -8 39 -17 0 -31 -40 -19 -55 8 -10 9 -19 0 -35 -6 -12 -9
-26 -7 -33 2 -7 10 -1 16 13 12 25 67 58 78 46 3 -3 -5 -14 -18 -25 -22 -18
-23 -20 -5 -27 10 -4 21 -2 25 5 4 6 18 10 31 9 32 -4 37 19 6 33 -35 16 -33
29 4 29 19 0 33 7 40 20 8 16 8 18 -4 14 -23 -9 -59 15 -53 36 2 10 -5 30 -17
45 -19 24 -23 25 -34 12z"/>
<path d="M9775 3434 c-46 -24 -61 -41 -74 -85 -41 -138 148 -233 231 -116 29
41 31 121 3 159 -20 27 -80 58 -113 58 -9 0 -30 -7 -47 -16z"/>
<path d="M6398 4409 c-2 -6 -59 -11 -158 -12 -85 0 -120 -3 -77 -4 59 -3 77
-7 77 -18 0 -11 12 -15 40 -15 28 0 40 -4 40 -14 0 -8 -6 -17 -12 -19 -7 -3 2
-6 20 -6 17 -1 32 4 32 9 0 6 7 10 15 10 9 0 15 -10 16 -27 l1 -28 7 25 c5 18
15 26 34 28 24 3 27 7 27 43 0 36 -2 39 -29 39 -16 0 -31 -5 -33 -11z"/>
<path d="M8385 4329 c-61 -23 -81 -83 -48 -140 42 -71 153 -48 169 36 5 30 1
46 -24 83 -12 18 -73 31 -97 21z"/>
<path d="M6893 1771 c-42 -26 -64 -71 -70 -140 -9 -96 33 -191 83 -191 10 0
42 25 71 55 l53 55 0 109 c0 60 -4 112 -9 115 -5 4 -29 9 -53 12 -33 4 -51 0
-75 -15z"/>
<path d="M8094 1771 c-18 -11 -43 -35 -58 -54 -24 -32 -26 -41 -26 -145 l0
-111 39 -12 c49 -15 86 -6 121 30 64 64 67 225 5 287 -29 29 -41 30 -81 5z"/>
<path d="M3340 1696 l0 -236 43 0 c50 1 110 21 139 47 46 41 62 92 63 193 0
83 -3 101 -25 139 -32 58 -75 82 -155 89 l-65 5 0 -237z"/>
<path d="M5733 1771 c-112 -70 -85 -309 37 -327 71 -10 127 51 137 152 14 133
-84 231 -174 175z"/>
<path d="M8633 1771 c-112 -70 -85 -309 37 -327 71 -10 127 51 137 152 14 133
-84 231 -174 175z"/>
<path d="M10760 872 c-15 -12 -24 -33 -27 -64 -5 -40 -2 -50 20 -72 31 -31 47
-32 77 -8 15 12 24 33 27 64 5 40 2 50 -20 72 -31 31 -47 32 -77 8z"/>
</g>
</svg>
